<?xml version="1.0" encoding="utf-8"?>
<!-- Generator: Adobe Illustrator 24.0.0, SVG Export Plug-In . SVG Version: 6.00 Build 0)  -->
<svg version="1.2" baseProfile="tiny" id="Layer_1" xmlns="http://www.w3.org/2000/svg" xmlns:xlink="http://www.w3.org/1999/xlink"
	 x="0px" y="0px" viewBox="0 0 500 500" xml:space="preserve">
<polygon fill="#FFBD59" points="248.47,46.13 123.11,251.24 153.41,251.24 113.01,342.14 180.74,342.14 123.11,454.02 
	413.68,140.14 327.44,140.14 409.8,46.13 "/>
<g>
	<polygon fill="#F09002" points="72.8,187.31 481.47,187.31 429.41,274.33 19.19,274.33 	"/>
	<g>
		<path d="M207.99,239.43h-7.06l-0.97,3.84h-8.67l7.81-24.89h10.75l7.81,24.89h-8.67L207.99,239.43z M202.54,233.24h3.87l-1.94-7.47
			L202.54,233.24z"/>
		<path d="M226.58,218.37h8.24v18.35h9.86v6.54h-18.1V218.37z"/>
		<path d="M268.48,239.43h-7.06l-0.97,3.84h-8.67l7.81-24.89h10.75l7.81,24.89h-8.67L268.48,239.43z M263.03,233.24h3.87l-1.94-7.47
			L263.03,233.24z"/>
		<path d="M287.08,218.37h8.1l6.17,11.91v-11.91h8.03v24.89h-8.1l-6.17-11.91v11.91h-8.03V218.37z"/>
	</g>
</g>
</svg>
