<svg version="1.1" id="Layer_1" xmlns="http://www.w3.org/2000/svg" xmlns:xlink="http://www.w3.org/1999/xlink" x="0px" y="0px"
	 width="100%" viewBox="0 0 2500 2500" enable-background="new 0 0 2500 2500" xml:space="preserve">
<path fill="#FFFFFF" opacity="1.000000" stroke="none" 
	d="
M1700.000000,2502.000000 
	C1133.333374,2502.000000 567.666687,2502.000000 2.000000,2502.000000 
	C2.000000,1668.666626 2.000000,835.333313 2.000000,2.000000 
	C835.333313,2.000000 1668.666626,2.000000 2502.000000,2.000000 
	C2502.000000,835.333313 2502.000000,1668.666626 2502.000000,2502.000000 
	C2235.000000,2502.000000 1968.000000,2502.000000 1700.000000,2502.000000 
M683.597534,2160.169189 
	C688.676147,2154.951172 693.825195,2149.799561 698.819763,2144.502441 
	C712.746948,2129.730957 726.690857,2114.973877 740.479431,2100.073730 
	C760.357361,2078.593506 780.054688,2056.946045 799.924072,2035.457642 
	C813.254517,2021.041138 826.821350,2006.843384 840.153870,1992.428589 
	C860.252502,1970.698730 880.192932,1948.822510 900.289490,1927.090576 
	C913.620667,1912.674561 927.181458,1898.470703 940.506409,1884.049072 
	C960.141541,1862.797729 979.604614,1841.387573 999.243286,1820.139648 
	C1012.796692,1805.475708 1026.598877,1791.041626 1040.153931,1776.379272 
	C1059.795044,1755.133301 1079.258179,1733.723022 1098.903198,1712.480835 
	C1112.460938,1697.821045 1126.277344,1683.400269 1139.835449,1668.740601 
	C1159.707275,1647.254517 1179.400269,1625.603027 1199.268188,1604.113159 
	C1212.823730,1589.451172 1226.626221,1575.017334 1240.177246,1560.351318 
	C1259.586914,1539.345093 1278.806152,1518.162842 1298.224854,1497.165039 
	C1312.008545,1482.260376 1326.070312,1467.613037 1339.858276,1452.712402 
	C1359.735474,1431.231323 1379.510986,1409.655762 1399.265747,1388.061890 
	C1415.642578,1370.160278 1431.926880,1352.173828 1450.071045,1333.896851 
	C1454.067505,1333.827271 1458.063965,1333.696777 1462.060425,1333.696655 
	C1669.693726,1333.686768 1877.327148,1333.687866 2084.960449,1333.687866 
	C2088.941650,1333.687866 2092.923096,1333.687988 2097.290283,1333.687988 
	C2176.311768,1201.540039 2255.202393,1069.614258 2334.071289,937.675781 
	C2335.087158,935.976624 2335.848389,934.122742 2336.677734,932.317932 
	C2336.788086,932.077820 2336.638672,931.686096 2336.536621,931.389587 
	C2336.437256,931.100586 2336.243652,930.843750 2335.944580,930.311707 
	C2332.433594,930.311707 2328.773193,930.311768 2325.112549,930.311768 
	C2162.471924,930.311768 1999.831421,930.315308 1837.190796,930.292419 
	C1832.868408,930.291809 1828.545898,930.004333 1824.799561,928.694092 
	C1829.344604,923.827515 1833.922852,918.991516 1838.429077,914.089233 
	C1857.780029,893.036743 1877.051392,871.910950 1896.466919,850.918213 
	C1910.248291,836.017273 1924.295654,821.362305 1938.077271,806.461548 
	C1957.719360,785.224670 1977.224243,763.860962 1996.792847,742.556152 
	C2005.680786,732.879456 2014.580933,723.213928 2023.475586,713.543396 
	C2023.209595,712.893127 2022.943726,712.242859 2022.677856,711.592590 
	C1891.410522,711.592590 1760.143311,711.592590 1626.392334,711.592590 
	C1754.038940,565.868774 1879.994629,422.075562 2007.296387,276.745544 
	C2002.509033,276.496460 1999.970581,276.248901 1997.432251,276.248718 
	C1754.171631,276.231049 1510.910889,276.252411 1267.650391,276.113922 
	C1261.663574,276.110535 1258.214111,277.772705 1254.981079,283.100555 
	C1223.560425,334.877136 1191.728027,386.403564 1160.143799,438.081268 
	C1115.023682,511.906616 1070.066162,585.831421 1024.941650,659.654114 
	C974.957520,741.427063 924.839722,823.118347 874.854370,904.890625 
	C870.012085,912.812195 865.692139,921.053162 859.507324,929.893494 
	C855.518677,930.032898 851.530090,930.293579 847.541443,930.294250 
	C716.898132,930.315491 586.254761,930.362976 455.611694,930.171875 
	C448.502869,930.161499 444.383118,932.166016 440.566956,938.497070 
	C416.863129,977.822144 392.651489,1016.841553 368.557281,1055.930908 
	C312.510010,1146.859131 256.431305,1237.767944 200.394608,1328.702759 
	C199.614136,1329.969238 199.213867,1331.469971 198.292969,1333.687988 
	C203.271133,1333.687988 207.224579,1333.687866 211.178024,1333.687866 
	C393.478760,1333.687866 575.779541,1333.686035 758.080261,1333.699097 
	C762.074890,1333.699341 766.069580,1333.868164 770.020142,1335.445435 
	C724.124146,1439.010620 678.228149,1542.575928 631.573181,1647.853760 
	C736.561340,1647.853760 839.843140,1647.853760 944.413452,1647.853760 
	C942.669617,1651.765747 941.737976,1654.186523 940.548584,1656.473145 
	C927.497192,1681.564575 914.325745,1706.593750 901.342468,1731.720337 
	C877.660767,1777.552002 854.081909,1823.436768 830.464172,1869.301392 
	C808.218689,1912.501465 785.951660,1955.690430 763.742676,1998.909302 
	C737.576904,2049.828369 711.454041,2100.769775 685.354980,2151.723145 
	C684.005737,2154.357422 683.054871,2157.195557 680.970520,2160.364990 
	C680.927734,2161.105469 680.884949,2161.846191 680.842285,2162.586670 
	C681.300232,2161.786377 681.758179,2160.986084 683.597534,2160.169189 
z"/>
<path fill="#F09003" opacity="1.000000" stroke="none" 
	d="
M770.064209,1333.958374 
	C766.069580,1333.868164 762.074890,1333.699341 758.080261,1333.699097 
	C575.779541,1333.686035 393.478760,1333.687866 211.178024,1333.687866 
	C207.224579,1333.687866 203.271133,1333.687988 198.292969,1333.687988 
	C199.213867,1331.469971 199.614136,1329.969238 200.394608,1328.702759 
	C256.431305,1237.767944 312.510010,1146.859131 368.557281,1055.930908 
	C392.651489,1016.841553 416.863129,977.822144 440.566956,938.497070 
	C444.383118,932.166016 448.502869,930.161499 455.611694,930.171875 
	C586.254761,930.362976 716.898132,930.315491 847.541443,930.294250 
	C851.530090,930.293579 855.518677,930.032898 861.286133,929.832397 
	C867.389404,929.880066 871.713867,930.083740 876.038269,930.083923 
	C1188.107178,930.098816 1500.176025,930.098450 1812.244995,930.087219 
	C1816.237793,930.087097 1820.230713,929.932861 1824.223511,929.850586 
	C1828.545898,930.004333 1832.868408,930.291809 1837.190796,930.292419 
	C1999.831421,930.315308 2162.471924,930.311768 2325.112549,930.311768 
	C2328.773193,930.311768 2332.433594,930.311707 2335.944580,930.311707 
	C2336.243652,930.843750 2336.437256,931.100586 2336.536621,931.389587 
	C2336.638672,931.686096 2336.788086,932.077820 2336.677734,932.317932 
	C2335.848389,934.122742 2335.087158,935.976624 2334.071289,937.675781 
	C2255.202393,1069.614258 2176.311768,1201.540039 2097.290283,1333.687988 
	C2092.923096,1333.687988 2088.941650,1333.687866 2084.960449,1333.687866 
	C1877.327148,1333.687866 1669.693726,1333.686768 1462.060425,1333.696655 
	C1458.063965,1333.696777 1454.067505,1333.827271 1448.213989,1333.920898 
	C1442.361572,1333.912354 1438.366333,1333.851196 1434.370972,1333.851074 
	C1217.595459,1333.846558 1000.819885,1333.846436 784.044312,1333.851807 
	C779.384277,1333.851929 774.724243,1333.921265 770.064209,1333.958374 
M1437.980225,1184.458496 
	C1439.020874,1186.211426 1440.011597,1189.450562 1441.109985,1189.487549 
	C1452.275024,1189.863281 1463.457642,1189.717163 1475.827881,1189.717163 
	C1475.827881,1172.538940 1475.827881,1156.567139 1475.827881,1140.595215 
	C1476.495728,1140.466064 1477.163696,1140.336792 1477.831543,1140.207520 
	C1486.535645,1156.818237 1495.239746,1173.428955 1503.563477,1189.313965 
	C1516.651123,1189.313965 1528.525513,1189.313965 1540.289062,1189.313965 
	C1542.347534,1177.573730 1541.894531,1081.615967 1539.709351,1074.197754 
	C1528.031006,1074.247314 1516.210815,1073.732056 1503.818359,1074.562256 
	C1503.818359,1091.889404 1503.818359,1108.040039 1503.818359,1124.190552 
	C1503.260010,1124.374756 1502.701660,1124.559082 1502.143311,1124.743286 
	C1493.275513,1107.889038 1484.407837,1091.034912 1475.475952,1074.058594 
	C1462.750122,1074.476562 1450.567383,1073.507324 1437.970093,1074.645386 
	C1437.970093,1111.334839 1437.970093,1146.942261 1437.980225,1184.458496 
M1090.295532,1104.509399 
	C1087.149170,1094.450073 1084.002808,1084.390747 1080.932739,1074.575439 
	C1063.548340,1074.575439 1047.312012,1074.575439 1030.608154,1074.575439 
	C1018.649719,1112.777710 1006.775635,1150.710205 994.700684,1189.284668 
	C1009.144104,1189.284668 1022.000549,1189.284668 1034.905762,1189.284668 
	C1036.591431,1183.387817 1038.128662,1178.009766 1039.720581,1172.440674 
	C1050.666992,1172.440674 1061.145874,1172.440674 1071.673340,1172.440674 
	C1073.459351,1178.325195 1075.089966,1183.697998 1076.818115,1189.391846 
	C1089.885986,1189.391846 1102.732788,1189.391846 1116.966553,1189.391846 
	C1108.068604,1161.060059 1099.426514,1133.543457 1090.295532,1104.509399 
M1365.626465,1089.266846 
	C1363.925293,1084.316040 1362.224121,1079.365234 1360.574341,1074.564087 
	C1343.536133,1074.564087 1327.300171,1074.564087 1310.568726,1074.564087 
	C1298.609131,1112.763550 1286.728027,1150.712280 1274.654297,1189.276367 
	C1289.032593,1189.276367 1301.881958,1189.276367 1314.717285,1189.276367 
	C1316.584717,1183.157227 1318.287476,1177.577515 1319.856445,1172.436157 
	C1331.197510,1172.436157 1341.405396,1172.436157 1351.658447,1172.436157 
	C1353.412598,1178.332397 1355.015869,1183.721313 1356.707031,1189.406128 
	C1369.823975,1189.406128 1382.684570,1189.406128 1395.460938,1189.406128 
	C1395.680420,1188.303101 1396.071411,1187.575317 1395.900024,1187.021851 
	C1385.969360,1154.946411 1375.991943,1122.885254 1365.626465,1089.266846 
M1195.831787,1075.662231 
	C1183.501343,1072.392578 1171.138916,1074.899902 1158.957520,1074.126587 
	C1156.809326,1090.906250 1157.572632,1182.772583 1159.669434,1189.236450 
	C1186.880249,1189.236450 1214.022461,1189.236450 1241.589355,1189.236450 
	C1241.589355,1179.090210 1241.589355,1169.574829 1241.589355,1158.627197 
	C1226.514404,1158.627197 1211.784668,1158.627197 1196.263062,1158.627197 
	C1196.263062,1130.643799 1196.263062,1104.084961 1195.831787,1075.662231 
z"/>
<path fill="#FFBD59" opacity="1.000000" stroke="none" 
	d="
M1824.511475,929.272339 
	C1820.230713,929.932861 1816.237793,930.087097 1812.244995,930.087219 
	C1500.176025,930.098450 1188.107178,930.098816 876.038269,930.083923 
	C871.713867,930.083740 867.389404,929.880066 862.097351,929.458618 
	C865.692139,921.053162 870.012085,912.812195 874.854370,904.890625 
	C924.839722,823.118347 974.957520,741.427063 1024.941650,659.654114 
	C1070.066162,585.831421 1115.023682,511.906616 1160.143799,438.081268 
	C1191.728027,386.403564 1223.560425,334.877136 1254.981079,283.100555 
	C1258.214111,277.772705 1261.663574,276.110535 1267.650391,276.113922 
	C1510.910889,276.252411 1754.171631,276.231049 1997.432251,276.248718 
	C1999.970581,276.248901 2002.509033,276.496460 2007.296387,276.745544 
	C1879.994629,422.075562 1754.038940,565.868774 1626.392334,711.592590 
	C1760.143311,711.592590 1891.410522,711.592590 2022.677856,711.592590 
	C2022.943726,712.242859 2023.209595,712.893127 2023.475586,713.543396 
	C2014.580933,723.213928 2005.680786,732.879456 1996.792847,742.556152 
	C1977.224243,763.860962 1957.719360,785.224670 1938.077271,806.461548 
	C1924.295654,821.362305 1910.248291,836.017273 1896.466919,850.918213 
	C1877.051392,871.910950 1857.780029,893.036743 1838.429077,914.089233 
	C1833.922852,918.991516 1829.344604,923.827515 1824.511475,929.272339 
z"/>
<path fill="#FFBD59" opacity="1.000000" stroke="none" 
	d="
M770.042175,1334.701904 
	C774.724243,1333.921265 779.384277,1333.851929 784.044312,1333.851807 
	C1000.819885,1333.846436 1217.595459,1333.846558 1434.370972,1333.851074 
	C1438.366333,1333.851196 1442.361572,1333.912354 1447.304565,1334.084961 
	C1431.926880,1352.173828 1415.642578,1370.160278 1399.265747,1388.061890 
	C1379.510986,1409.655762 1359.735474,1431.231323 1339.858276,1452.712402 
	C1326.070312,1467.613037 1312.008545,1482.260376 1298.224854,1497.165039 
	C1278.806152,1518.162842 1259.586914,1539.345093 1240.177246,1560.351318 
	C1226.626221,1575.017334 1212.823730,1589.451172 1199.268188,1604.113159 
	C1179.400269,1625.603027 1159.707275,1647.254517 1139.835449,1668.740601 
	C1126.277344,1683.400269 1112.460938,1697.821045 1098.903198,1712.480835 
	C1079.258179,1733.723022 1059.795044,1755.133301 1040.153931,1776.379272 
	C1026.598877,1791.041626 1012.796692,1805.475708 999.243286,1820.139648 
	C979.604614,1841.387573 960.141541,1862.797729 940.506409,1884.049072 
	C927.181458,1898.470703 913.620667,1912.674561 900.289490,1927.090576 
	C880.192932,1948.822510 860.252502,1970.698730 840.153870,1992.428589 
	C826.821350,2006.843384 813.254517,2021.041138 799.924072,2035.457642 
	C780.054688,2056.946045 760.357361,2078.593506 740.479431,2100.073730 
	C726.690857,2114.973877 712.746948,2129.730957 698.819763,2144.502441 
	C693.825195,2149.799561 688.676147,2154.951172 682.833008,2160.115234 
	C682.068420,2160.061035 681.918579,2159.938965 681.918579,2159.938965 
	C683.054871,2157.195557 684.005737,2154.357422 685.354980,2151.723145 
	C711.454041,2100.769775 737.576904,2049.828369 763.742676,1998.909302 
	C785.951660,1955.690430 808.218689,1912.501465 830.464172,1869.301392 
	C854.081909,1823.436768 877.660767,1777.552002 901.342468,1731.720337 
	C914.325745,1706.593750 927.497192,1681.564575 940.548584,1656.473145 
	C941.737976,1654.186523 942.669617,1651.765747 944.413452,1647.853760 
	C839.843140,1647.853760 736.561340,1647.853760 631.573181,1647.853760 
	C678.228149,1542.575928 724.124146,1439.010620 770.042175,1334.701904 
z"/>
<path fill="#FFBD59" opacity="1.000000" stroke="none" 
	d="
M682.142273,2160.123291 
	C681.758179,2160.986084 681.300232,2161.786377 680.842285,2162.586670 
	C680.884949,2161.846191 680.927734,2161.105469 681.444580,2160.151855 
	C681.918579,2159.938965 682.068420,2160.061035 682.142273,2160.123291 
z"/>
<path fill="#060400" opacity="1.000000" stroke="none" 
	d="
M1437.975098,1183.504150 
	C1437.970093,1146.942261 1437.970093,1111.334839 1437.970093,1074.645386 
	C1450.567383,1073.507324 1462.750122,1074.476562 1475.475952,1074.058594 
	C1484.407837,1091.034912 1493.275513,1107.889038 1502.143311,1124.743286 
	C1502.701660,1124.559082 1503.260010,1124.374756 1503.818359,1124.190552 
	C1503.818359,1108.040039 1503.818359,1091.889404 1503.818359,1074.562256 
	C1516.210815,1073.732056 1528.031006,1074.247314 1539.709351,1074.197754 
	C1541.894531,1081.615967 1542.347534,1177.573730 1540.289062,1189.313965 
	C1528.525513,1189.313965 1516.651123,1189.313965 1503.563477,1189.313965 
	C1495.239746,1173.428955 1486.535645,1156.818237 1477.831543,1140.207520 
	C1477.163696,1140.336792 1476.495728,1140.466064 1475.827881,1140.595215 
	C1475.827881,1156.567139 1475.827881,1172.538940 1475.827881,1189.717163 
	C1463.457642,1189.717163 1452.275024,1189.863281 1441.109985,1189.487549 
	C1440.011597,1189.450562 1439.020874,1186.211426 1437.975098,1183.504150 
z"/>
<path fill="#040300" opacity="1.000000" stroke="none" 
	d="
M1090.540039,1105.268066 
	C1099.426514,1133.543457 1108.068604,1161.060059 1116.966553,1189.391846 
	C1102.732788,1189.391846 1089.885986,1189.391846 1076.818115,1189.391846 
	C1075.089966,1183.697998 1073.459351,1178.325195 1071.673340,1172.440674 
	C1061.145874,1172.440674 1050.666992,1172.440674 1039.720581,1172.440674 
	C1038.128662,1178.009766 1036.591431,1183.387817 1034.905762,1189.284668 
	C1022.000549,1189.284668 1009.144104,1189.284668 994.700684,1189.284668 
	C1006.775635,1150.710205 1018.649719,1112.777710 1030.608154,1074.575439 
	C1047.312012,1074.575439 1063.548340,1074.575439 1080.932739,1074.575439 
	C1084.002808,1084.390747 1087.149170,1094.450073 1090.540039,1105.268066 
M1051.702515,1143.279053 
	C1055.587524,1143.279053 1059.472412,1143.279053 1064.140625,1143.279053 
	C1062.011108,1132.121338 1060.104614,1122.239502 1055.263672,1110.949219 
	C1052.530762,1121.229980 1050.227051,1129.183716 1048.422607,1137.249146 
	C1048.032959,1138.990723 1049.441528,1141.134644 1051.702515,1143.279053 
z"/>
<path fill="#040300" opacity="1.000000" stroke="none" 
	d="
M1365.822754,1090.044800 
	C1375.991943,1122.885254 1385.969360,1154.946411 1395.900024,1187.021851 
	C1396.071411,1187.575317 1395.680420,1188.303101 1395.460938,1189.406128 
	C1382.684570,1189.406128 1369.823975,1189.406128 1356.707031,1189.406128 
	C1355.015869,1183.721313 1353.412598,1178.332397 1351.658447,1172.436157 
	C1341.405396,1172.436157 1331.197510,1172.436157 1319.856445,1172.436157 
	C1318.287476,1177.577515 1316.584717,1183.157227 1314.717285,1189.276367 
	C1301.881958,1189.276367 1289.032593,1189.276367 1274.654297,1189.276367 
	C1286.728027,1150.712280 1298.609131,1112.763550 1310.568726,1074.564087 
	C1327.300171,1074.564087 1343.536133,1074.564087 1360.574341,1074.564087 
	C1362.224121,1079.365234 1363.925293,1084.316040 1365.822754,1090.044800 
M1337.337280,1114.508545 
	C1336.628418,1113.934204 1335.919556,1113.359863 1334.713867,1112.382812 
	C1332.146240,1122.587036 1329.697754,1132.317749 1327.131592,1142.516357 
	C1333.533936,1142.516357 1338.535156,1142.516357 1344.393433,1142.516357 
	C1342.024414,1133.019653 1339.893188,1124.476685 1337.337280,1114.508545 
z"/>
<path fill="#050300" opacity="1.000000" stroke="none" 
	d="
M1196.047363,1076.594238 
	C1196.263062,1104.084961 1196.263062,1130.643799 1196.263062,1158.627197 
	C1211.784668,1158.627197 1226.514404,1158.627197 1241.589355,1158.627197 
	C1241.589355,1169.574829 1241.589355,1179.090210 1241.589355,1189.236450 
	C1214.022461,1189.236450 1186.880249,1189.236450 1159.669434,1189.236450 
	C1157.572632,1182.772583 1156.809326,1090.906250 1158.957520,1074.126587 
	C1171.138916,1074.899902 1183.501343,1072.392578 1196.047363,1076.594238 
z"/>
<path fill="#D58002" opacity="1.000000" stroke="none" 
	d="
M1050.862061,1143.186157 
	C1049.441528,1141.134644 1048.032959,1138.990723 1048.422607,1137.249146 
	C1050.227051,1129.183716 1052.530762,1121.229980 1055.263672,1110.949219 
	C1060.104614,1122.239502 1062.011108,1132.121338 1064.140625,1143.279053 
	C1059.472412,1143.279053 1055.587524,1143.279053 1050.862061,1143.186157 
z"/>
<path fill="#D58002" opacity="1.000000" stroke="none" 
	d="
M1337.549561,1115.221069 
	C1339.893188,1124.476685 1342.024414,1133.019653 1344.393433,1142.516357 
	C1338.535156,1142.516357 1333.533936,1142.516357 1327.131592,1142.516357 
	C1329.697754,1132.317749 1332.146240,1122.587036 1334.713867,1112.382812 
	C1335.919556,1113.359863 1336.628418,1113.934204 1337.549561,1115.221069 
z"/>
</svg>